HIERARCHY
ROOT Root
{
  OFFSET 0.0 0.0 0.0
  CHANNELS 6 Xposition Yposition Zposition Zrotation Yrotation Xrotation
  JOINT Hips
  {
    OFFSET 0.0 100.0 0.0
    CHANNELS 6 Xposition Yposition Zposition Zrotation Yrotation Xrotation
    JOINT Spine1
    {
      OFFSET 5.003913 -0.037094 -0.013727
      CHANNELS 3 Zrotation Yrotation Xrotation
      JOINT Spine2
      {
        OFFSET 7.125363 -1e-06 0.0
        CHANNELS 3 Zrotation Yrotation Xrotation
        JOINT Chest
        {
          OFFSET 7.594027 1e-06 0.0
          CHANNELS 3 Zrotation Yrotation Xrotation
          JOINT Neck1
          {
            OFFSET 26.313086 -0.460272 -0.181672
            CHANNELS 3 Zrotation Yrotation Xrotation
            JOINT Neck2
            {
              OFFSET 8.045911 0.0 0.0
              CHANNELS 3 Zrotation Yrotation Xrotation
              JOINT Head
              {
                OFFSET 6.432774 0.0 0.0
                CHANNELS 3 Zrotation Yrotation Xrotation
                JOINT HeadEnd
                {
                  OFFSET 16.169773 0.06451 0.00362
                  CHANNELS 3 Zrotation Yrotation Xrotation
                }
                JOINT Jaw
                {
                  OFFSET 0.108741 3.12938 0.002639
                  CHANNELS 3 Zrotation Yrotation Xrotation
                }
                JOINT LeftEye
                {
                  OFFSET 4.45173 8.166359 3.206392
                  CHANNELS 3 Zrotation Yrotation Xrotation
                }
                JOINT RightEye
                {
                  OFFSET 4.436895 8.135758 -3.222429
                  CHANNELS 3 Zrotation Yrotation Xrotation
                }
              }
            }
          }
          JOINT LeftShoulder
          {
            OFFSET 23.218927 5.195579 1.621656
            CHANNELS 3 Zrotation Yrotation Xrotation
            JOINT LeftArm
            {
              OFFSET 15.902118 2e-06 -2e-06
              CHANNELS 3 Zrotation Yrotation Xrotation
              JOINT LeftForeArm
              {
                OFFSET 28.739307 0.0 -1e-06
                CHANNELS 3 Zrotation Yrotation Xrotation
                JOINT LeftHand
                {
                  OFFSET 27.093981 -4e-06 0.0
                  CHANNELS 3 Zrotation Yrotation Xrotation
                  JOINT LeftHandThumb1
                  {
                    OFFSET 2.276781 3.380274 0.83384
                    CHANNELS 3 Zrotation Yrotation Xrotation
                    JOINT LeftHandThumb2
                    {
                      OFFSET 4.705309 -1e-06 -1e-06
                      CHANNELS 3 Zrotation Yrotation Xrotation
                      JOINT LeftHandThumb3
                      {
                        OFFSET 2.798515 0.0 3e-06
                        CHANNELS 3 Zrotation Yrotation Xrotation
                        JOINT LeftHandThumbEnd
                        {
                          OFFSET 3.180793 4e-06 -4e-06
                          CHANNELS 3 Zrotation Yrotation Xrotation
                        }
                      }
                    }
                  }
                  JOINT LeftHandIndex1
                  {
                    OFFSET 3.247786 2.352677 0.137192
                    CHANNELS 3 Zrotation Yrotation Xrotation
                    JOINT LeftHandIndex2
                    {
                      OFFSET 6.367095 1e-06 0.0
                      CHANNELS 3 Zrotation Yrotation Xrotation
                      JOINT LeftHandIndex3
                      {
                        OFFSET 3.662364 0.0 0.0
                        CHANNELS 3 Zrotation Yrotation Xrotation
                        JOINT LeftHandIndex4
                        {
                          OFFSET 2.329242 4e-06 -4e-06
                          CHANNELS 3 Zrotation Yrotation Xrotation
                          JOINT LeftHandIndexEnd
                          {
                            OFFSET 2.767823 1e-06 0.0
                            CHANNELS 3 Zrotation Yrotation Xrotation
                          }
                        }
                      }
                    }
                  }
                  JOINT LeftHandMiddle1
                  {
                    OFFSET 3.163612 0.945023 -0.406112
                    CHANNELS 3 Zrotation Yrotation Xrotation
                    JOINT LeftHandMiddle2
                    {
                      OFFSET 6.276789 3e-06 0.0
                      CHANNELS 3 Zrotation Yrotation Xrotation
                      JOINT LeftHandMiddle3
                      {
                        OFFSET 4.35652 -1e-06 4e-06
                        CHANNELS 3 Zrotation Yrotation Xrotation
                        JOINT LeftHandMiddle4
                        {
                          OFFSET 2.996877 0.0 8e-06
                          CHANNELS 3 Zrotation Yrotation Xrotation
                          JOINT LeftHandMiddleEnd
                          {
                            OFFSET 2.323256 3e-06 -4e-06
                            CHANNELS 3 Zrotation Yrotation Xrotation
                          }
                        }
                      }
                    }
                  }
                  JOINT LeftHandRing1
                  {
                    OFFSET 2.882606 -0.309162 0.107445
                    CHANNELS 3 Zrotation Yrotation Xrotation
                    JOINT LeftHandRing2
                    {
                      OFFSET 6.033198 0.0 4e-06
                      CHANNELS 3 Zrotation Yrotation Xrotation
                      JOINT LeftHandRing3
                      {
                        OFFSET 4.350578 3e-06 0.0
                        CHANNELS 3 Zrotation Yrotation Xrotation
                        JOINT LeftHandRing4
                        {
                          OFFSET 2.651321 2e-06 -7e-06
                          CHANNELS 3 Zrotation Yrotation Xrotation
                          JOINT LeftHandRingEnd
                          {
                            OFFSET 1.937663 1e-06 -4e-06
                            CHANNELS 3 Zrotation Yrotation Xrotation
                          }
                        }
                      }
                    }
                  }
                  JOINT LeftHandPinky1
                  {
                    OFFSET 2.865315 -1.525436 0.575687
                    CHANNELS 3 Zrotation Yrotation Xrotation
                    JOINT LeftHandPinky2
                    {
                      OFFSET 5.54936 1e-06 -8e-06
                      CHANNELS 3 Zrotation Yrotation Xrotation
                      JOINT LeftHandPinky3
                      {
                        OFFSET 3.070974 0.0 -4e-06
                        CHANNELS 3 Zrotation Yrotation Xrotation
                        JOINT LeftHandPinky4
                        {
                          OFFSET 1.549672 1e-06 0.0
                          CHANNELS 3 Zrotation Yrotation Xrotation
                          JOINT LeftHandPinkyEnd
                          {
                            OFFSET 1.952123 0.0 0.0
                            CHANNELS 3 Zrotation Yrotation Xrotation
                          }
                        }
                      }
                    }
                  }
                }
              }
            }
          }
          JOINT RightShoulder
          {
            OFFSET 23.161716 5.296122 -1.380114
            CHANNELS 3 Zrotation Yrotation Xrotation
            JOINT RightArm
            {
              OFFSET -16.027195 -2e-06 1.1e-05
              CHANNELS 3 Zrotation Yrotation Xrotation
              JOINT RightForeArm
              {
                OFFSET -28.736639 4e-06 2e-06
                CHANNELS 3 Zrotation Yrotation Xrotation
                JOINT RightHand
                {
                  OFFSET -27.133619 6e-06 0.0
                  CHANNELS 3 Zrotation Yrotation Xrotation
                  JOINT RightHandThumb1
                  {
                    OFFSET -2.274328 -3.351035 -0.83067
                    CHANNELS 3 Zrotation Yrotation Xrotation
                    JOINT RightHandThumb2
                    {
                      OFFSET -4.703594 -3e-06 2e-06
                      CHANNELS 3 Zrotation Yrotation Xrotation
                      JOINT RightHandThumb3
                      {
                        OFFSET -2.794935 -4e-06 -3e-06
                        CHANNELS 3 Zrotation Yrotation Xrotation
                        JOINT RightHandThumbEnd
                        {
                          OFFSET -3.183852 4e-06 1e-06
                          CHANNELS 3 Zrotation Yrotation Xrotation
                        }
                      }
                    }
                  }
                  JOINT RightHandIndex1
                  {
                    OFFSET -3.253496 -2.33755 -0.127667
                    CHANNELS 3 Zrotation Yrotation Xrotation
                    JOINT RightHandIndex2
                    {
                      OFFSET -6.344434 0.0 0.0
                      CHANNELS 3 Zrotation Yrotation Xrotation
                      JOINT RightHandIndex3
                      {
                        OFFSET -3.654871 0.0 -8e-06
                        CHANNELS 3 Zrotation Yrotation Xrotation
                        JOINT RightHandIndex4
                        {
                          OFFSET -2.327586 -1e-06 0.0
                          CHANNELS 3 Zrotation Yrotation Xrotation
                          JOINT RightHandIndexEnd
                          {
                            OFFSET -2.770001 3e-06 8e-06
                            CHANNELS 3 Zrotation Yrotation Xrotation
                          }
                        }
                      }
                    }
                  }
                  JOINT RightHandMiddle1
                  {
                    OFFSET -3.168223 -0.944764 0.411762
                    CHANNELS 3 Zrotation Yrotation Xrotation
                    JOINT RightHandMiddle2
                    {
                      OFFSET -6.266691 -1e-06 -4e-06
                      CHANNELS 3 Zrotation Yrotation Xrotation
                      JOINT RightHandMiddle3
                      {
                        OFFSET -4.348901 0.0 0.0
                        CHANNELS 3 Zrotation Yrotation Xrotation
                        JOINT RightHandMiddle4
                        {
                          OFFSET -3.00024 2e-06 -4e-06
                          CHANNELS 3 Zrotation Yrotation Xrotation
                          JOINT RightHandMiddleEnd
                          {
                            OFFSET -2.321477 -4e-06 -4e-06
                            CHANNELS 3 Zrotation Yrotation Xrotation
                          }
                        }
                      }
                    }
                  }
                  JOINT RightHandRing1
                  {
                    OFFSET -2.885654 0.293261 -0.119232
                    CHANNELS 3 Zrotation Yrotation Xrotation
                    JOINT RightHandRing2
                    {
                      OFFSET -6.032835 -1e-06 -4e-06
                      CHANNELS 3 Zrotation Yrotation Xrotation
                      JOINT RightHandRing3
                      {
                        OFFSET -4.33881 0.0 -4e-06
                        CHANNELS 3 Zrotation Yrotation Xrotation
                        JOINT RightHandRing4
                        {
                          OFFSET -2.654903 -4e-06 -4e-06
                          CHANNELS 3 Zrotation Yrotation Xrotation
                          JOINT RightHandRingEnd
                          {
                            OFFSET -1.935122 0.0 4e-06
                            CHANNELS 3 Zrotation Yrotation Xrotation
                          }
                        }
                      }
                    }
                  }
                  JOINT RightHandPinky1
                  {
                    OFFSET -2.866241 1.503904 -0.60527
                    CHANNELS 3 Zrotation Yrotation Xrotation
                    JOINT RightHandPinky2
                    {
                      OFFSET -5.553177 -2e-06 0.0
                      CHANNELS 3 Zrotation Yrotation Xrotation
                      JOINT RightHandPinky3
                      {
                        OFFSET -3.062664 -1e-06 -4e-06
                        CHANNELS 3 Zrotation Yrotation Xrotation
                        JOINT RightHandPinky4
                        {
                          OFFSET -1.546529 2e-06 4e-06
                          CHANNELS 3 Zrotation Yrotation Xrotation
                          JOINT RightHandPinkyEnd
                          {
                            OFFSET -1.952341 0.0 -4e-06
                            CHANNELS 3 Zrotation Yrotation Xrotation
                          }
                        }
                      }
                    }
                  }
                }
              }
            }
          }
        }
      }
    }
    JOINT LeftLeg
    {
      OFFSET -8.443107 2.567604 10.043214
      CHANNELS 3 Zrotation Yrotation Xrotation
      JOINT LeftShin
      {
        OFFSET 43.229198 1e-06 -1e-06
        CHANNELS 3 Zrotation Yrotation Xrotation
        JOINT LeftFoot
        {
          OFFSET 42.298611 1e-06 1e-06
          CHANNELS 3 Zrotation Yrotation Xrotation
          JOINT LeftToeBase
          {
            OFFSET 14.165858 1e-06 0.0
            CHANNELS 3 Zrotation Yrotation Xrotation
            JOINT LeftToeEnd
            {
              OFFSET 6.7141 -0.234461 0.0
              CHANNELS 3 Zrotation Yrotation Xrotation
            }
          }
        }
      }
    }
    JOINT RightLeg
    {
      OFFSET -8.303923 2.592729 -10.047278
      CHANNELS 3 Zrotation Yrotation Xrotation
      JOINT RightShin
      {
        OFFSET -43.369682 0.0 1e-06
        CHANNELS 3 Zrotation Yrotation Xrotation
        JOINT RightFoot
        {
          OFFSET -42.260784 4e-06 2e-06
          CHANNELS 3 Zrotation Yrotation Xrotation
          JOINT RightToeBase
          {
            OFFSET -14.222245 -2e-06 -1e-06
            CHANNELS 3 Zrotation Yrotation Xrotation
            JOINT RightToeEnd
            {
              OFFSET -6.660062 0.232574 -2e-06
              CHANNELS 3 Zrotation Yrotation Xrotation
            }
          }
        }
      }
    }
  }
}
MOTION
Frames: 4
Frame Time: 0.03333333333333333
0.0 0.0 0.0 0.0 -0.0 0.0 1.216097 100.057648 5.979208 90.262192 -0.757369 90.342262 -2.066721 -0.896822 0.177294 -11.145442 -0.659929 -0.449818 15.991699 0.274515 -2.270579 16.792418 0.044967 2.437879 -2.565449 -0.658307 -2.361479 -31.711773 1.341311 -5.124325 6e-06 0.0 0.0 0.013216 0.009981 -0.028886 0.01097 0.040901 -0.025138 -0.004257 -0.024161 -0.022613 -129.985443 -68.078255 143.901138 -1.490337 -41.453514 -15.920905 53.19128 0.780483 0.055585 3.654953 -2.143946 -44.884056 17.636618 -26.322725 52.411194 -19.466658 -14.395594 29.410381 2e-06 -8.774817 -3e-06 15.48638 -17.982079 6.391797 -0.609778 -1.795651 -3.889329 -4.807091 -11.046809 -2.93785 4e-06 -20.976011 -1e-06 -5.019969 -25.033556 -4.031882 6e-06 1e-06 -1e-06 -10.634533 -5.686969 -3.565587 10.573274 -17.922951 -3.113901 3e-06 -13.821206 0.0 -0.501777 -31.181501 -4.027017 -10.8224 -59.539005 6.665009 -13.982714 -7.150198 -2.875044 13.772727 -8.401486 -3.218243 0.347733 -34.211536 0.771653 -0.963028 -17.733366 2.621018 1e-06 0.0 -1e-06 -17.346416 -20.095213 -4.201784 21.757555 -1.638377 3.866426 1e-06 -6.338821 1e-06 -1.697589 -22.59174 -6.194004 -0.0 -4e-06 -3e-06 55.143993 -75.126198 137.008484 1.336039 -44.324764 -13.486639 51.615517 0.685296 1.021679 -5.039822 4.545479 -58.14167 22.182116 -20.3759 49.933323 -16.701813 -16.743525 28.476532 -2e-06 -12.690601 -2e-06 15.27899 -16.98912 3.290422 -0.105923 -1.513858 -4.275879 -5.039041 -5.612872 -2.953557 5e-06 -11.02052 -3e-06 -6.111297 -15.895338 -3.840471 -1e-06 0.0 1e-06 -10.283371 -5.68029 -4.341839 11.028291 -11.302406 -2.372631 -1.384267 -14.238583 -6.320121 -0.62544 -26.924194 -3.8276 -4.234056 -48.532265 -2.907614 -13.708527 -7.363477 -3.720938 18.141146 -14.052739 -3.242673 7e-06 -18.787271 -3e-06 -0.429711 -8.456045 2.555503 -1e-06 -1e-06 0.0 -15.923534 -20.094484 -5.473585 30.41921 -7.190827 1.735926 3e-06 -8.162929 0.0 -1.8619 -22.861469 -6.167943 0.0 -2e-06 0.0 -175.492142 -5.845352 -25.235611 5.698405 -0.076089 0.248879 -75.646492 -0.500487 -8.663579 -5.032784 1.375132 2.093328 -0.999999 1e-06 0.0 2.416326 -7.317709 -20.527853 5.526025 0.047424 -0.059041 -74.440895 -4.266089 -10.251981 -5.083807 0.776599 1.683405 -1.000002 -0.0 0.0 
0.0 0.0 0.0 0.0 -0.0 0.0 1.137749 100.024689 6.022323 90.231972 -0.783579 90.228592 -2.107809 -0.892387 0.184225 -11.146582 -0.641398 -0.370857 15.939309 0.220438 -2.326335 16.982819 0.17501 2.503267 -2.52509 -0.699111 -2.369997 -31.660854 1.367292 -5.203222 6e-06 -0.0 -0.0 0.008747 0.010867 -0.017883 0.023696 0.03326 -0.015889 0.011282 -0.014918 -0.010993 -129.895752 -68.066864 143.859146 -1.295008 -41.271191 -16.490288 52.882671 0.567937 -0.011477 3.891595 -2.211936 -44.553303 17.636625 -26.322729 52.41119 -19.466661 -14.395597 29.410385 1e-06 -8.774821 -2e-06 15.613912 -17.961432 6.334688 -0.609774 -1.795654 -3.889327 -4.807091 -11.046809 -2.937849 7e-06 -20.976015 -1e-06 -5.019969 -25.03356 -4.031882 6e-06 0.0 0.0 -10.634535 -5.68697 -3.565587 10.573277 -17.922947 -3.113903 3e-06 -13.821206 2e-06 -0.501777 -31.181498 -4.027017 -11.076923 -59.682827 6.873914 -13.982712 -7.150195 -2.875042 13.772731 -8.401493 -3.218242 0.347738 -34.211544 0.771655 -0.963029 -17.733368 2.62102 1e-06 -0.0 0.0 -17.346416 -20.095217 -4.201784 21.757555 -1.638377 3.866428 1e-06 -6.338821 0.0 -1.697586 -22.591738 -6.194008 0.0 -4e-06 -0.0 55.201794 -75.17263 136.923401 1.40302 -44.313248 -13.597514 51.450493 0.71587 1.075083 -5.056648 4.620591 -58.463116 22.182106 -20.375887 49.933308 -16.701815 -16.743525 28.476526 -5e-06 -12.690598 1e-06 15.300718 -17.005394 3.34454 -0.105918 -1.513855 -4.275879 -5.039041 -5.612872 -2.953558 5e-06 -11.02052 -2e-06 -6.111293 -15.89533 -3.840467 1e-06 -1e-06 -0.0 -10.283369 -5.680287 -4.341837 11.028291 -11.302402 -2.372634 -1.384267 -14.238577 -6.32012 -0.625437 -26.924187 -3.827601 -4.24383 -48.762188 -2.840893 -13.708522 -7.363472 -3.720938 18.141146 -14.052736 -3.242674 9e-06 -18.787266 -4e-06 -0.42971 -8.456039 2.555502 -1e-06 -0.0 -2e-06 -15.92353 -20.094477 -5.473584 30.419205 -7.190827 1.735923 4e-06 -8.162922 0.0 -1.861901 -22.861467 -6.167941 0.0 -2e-06 -1e-06 -175.476074 -5.952521 -25.305731 5.733299 -0.067121 0.286516 -75.78698 -0.355989 -8.74795 -5.069732 1.412686 2.109994 -0.999999 -1e-06 0.0 2.470024 -7.273142 -20.598761 5.49107 0.039278 -0.067484 -74.659714 -4.10025 -10.194158 -5.13478 0.763592 1.68013 -1.000001 0.0 -0.0 
0.0 0.0 0.0 0.0 -0.0 0.0 1.026983 99.999916 6.03486 90.219025 -0.806363 90.162697 -2.157363 -0.900361 0.18063 -11.1578 -0.637739 -0.31761 15.933307 0.18674 -2.346556 17.102991 0.303823 2.537977 -2.536336 -0.712007 -2.363734 -31.472347 1.415488 -5.254769 6e-06 -0.0 -0.0 0.004286 0.014159 -0.01245 0.021441 0.024959 -0.009769 0.014121 -0.000203 -0.00741 -129.945343 -68.071991 143.932541 -1.18941 -41.064972 -16.742683 52.723572 0.488616 -0.069828 4.025251 -2.324553 -44.435604 17.636627 -26.322737 52.411205 -19.466663 -14.395598 29.410389 2e-06 -8.774821 -3e-06 15.672675 -17.972281 6.308469 -0.609776 -1.795655 -3.889328 -4.807089 -11.04681 -2.937852 4e-06 -20.976017 0.0 -5.019969 -25.03356 -4.031882 6e-06 1e-06 0.0 -10.634536 -5.686968 -3.565589 10.573277 -17.922955 -3.113901 3e-06 -13.821209 1e-06 -0.501777 -31.181505 -4.027019 -11.223233 -59.790806 6.990008 -13.982712 -7.150201 -2.875044 13.77273 -8.40149 -3.218242 0.347734 -34.211555 0.771656 -0.96303 -17.733372 2.62102 0.0 0.0 -2e-06 -17.346418 -20.095219 -4.201784 21.757555 -1.638373 3.866429 2e-06 -6.338822 -0.0 -1.697589 -22.591742 -6.194006 0.0 -5e-06 -1e-06 55.121761 -75.195099 136.980057 1.488189 -44.283802 -13.621671 51.264145 0.806888 1.14859 -5.108956 4.778473 -59.164875 22.182104 -20.375893 49.933315 -16.701811 -16.743528 28.476532 -3e-06 -12.690598 1e-06 15.29145 -16.967604 3.382734 -0.10592 -1.513854 -4.275881 -5.039039 -5.612872 -2.953556 3e-06 -11.020519 -2e-06 -6.111294 -15.895334 -3.840468 -1e-06 2e-06 1e-06 -10.283369 -5.680286 -4.341838 11.028291 -11.302402 -2.372635 -1.384268 -14.238576 -6.320122 -0.625438 -26.924187 -3.827599 -4.239596 -48.851021 -2.811003 -13.708519 -7.363474 -3.720938 18.141146 -14.052736 -3.242676 6e-06 -18.78727 -2e-06 -0.429713 -8.45604 2.555504 -0.0 -0.0 -1e-06 -15.92353 -20.094477 -5.473584 30.419205 -7.190827 1.735919 3e-06 -8.162925 -1e-06 -1.861902 -22.861467 -6.16794 -0.0 -3e-06 -3e-06 -175.478302 -6.043576 -25.42955 5.782033 -0.066922 0.304667 -75.882187 -0.130788 -8.767722 -5.065434 1.422434 2.119444 -0.999999 1e-06 -0.0 2.541731 -7.236513 -20.651983 5.460164 0.037982 -0.068364 -74.747269 -3.982134 -10.17092 -5.139605 0.76153 1.678863 -1.000002 1e-06 -0.0 
0.0 0.0 0.0 0.0 -0.0 0.0 0.913047 99.979492 6.02906 90.216019 -0.831207 90.139603 -2.19579 -0.925759 0.164491 -11.181097 -0.631927 -0.279226 15.95225 0.166845 -2.343644 17.164316 0.404648 2.54488 -2.555789 -0.709738 -2.317488 -31.273087 1.48016 -5.282958 5e-06 0.0 -0.0 -0.002048 0.018504 -0.001474 0.011585 0.021844 0.001394 0.006692 0.011594 0.00243 -129.942261 -68.082748 143.945145 -1.052862 -40.929878 -16.838024 52.69305 0.482204 -0.095402 4.075121 -2.367572 -44.411221 17.636618 -26.322729 52.411182 -19.466658 -14.395596 29.410381 1e-06 -8.77482 -3e-06 15.691148 -17.974291 6.286366 -0.609779 -1.795656 -3.889326 -4.807086 -11.046808 -2.937851 4e-06 -20.976015 1e-06 -5.019971 -25.033556 -4.03188 7e-06 -1e-06 0.0 -10.634528 -5.686971 -3.565586 10.573271 -17.922947 -3.113902 3e-06 -13.821206 1e-06 -0.501776 -31.181498 -4.027015 -11.28847 -59.808949 7.027586 -13.982711 -7.150198 -2.875041 13.772727 -8.401491 -3.218242 0.347733 -34.211544 0.771655 -0.96303 -17.733368 2.621018 0.0 1e-06 1e-06 -17.346409 -20.095215 -4.20178 21.757551 -1.638376 3.866427 1e-06 -6.338821 -1e-06 -1.697588 -22.591742 -6.194007 -0.0 -4e-06 -2e-06 54.997082 -75.20649 137.095078 1.602625 -44.295353 -13.621887 51.075752 0.924523 1.251276 -5.186133 4.846082 -59.90638 22.18211 -20.375902 49.933323 -16.701815 -16.743528 28.476534 -3e-06 -12.690601 -1e-06 15.27462 -16.935801 3.392733 -0.10592 -1.513855 -4.275883 -5.039042 -5.612873 -2.953556 5e-06 -11.020526 -2e-06 -6.111297 -15.895334 -3.840469 1e-06 -1e-06 0.0 -10.283369 -5.680288 -4.341839 11.028294 -11.302406 -2.372634 -1.384266 -14.238582 -6.320121 -0.62544 -26.924194 -3.827598 -4.240698 -48.842194 -2.819841 -13.708526 -7.363478 -3.720939 18.141146 -14.052742 -3.242675 7e-06 -18.787275 -2e-06 -0.429713 -8.456044 2.555504 -0.0 -1e-06 -1e-06 -15.923534 -20.094484 -5.473585 30.419214 -7.190826 1.735924 3e-06 -8.162929 -0.0 -1.861902 -22.861473 -6.167943 0.0 -4e-06 -1e-06 -175.501129 -6.114978 -25.542339 5.835542 -0.071119 0.31192 -75.955116 0.06317 -8.757373 -5.079918 1.413347 2.118255 -0.999999 -0.0 -0.0 2.524339 -7.231459 -20.652319 5.606493 0.037164 -0.074076 -74.909111 -3.910916 -10.15003 -5.146582 0.755535 1.676006 -1.000002 -0.0 -0.0 
